<?xml version="1.0" encoding="UTF-8"?>
<!-- Generator: Adobe Illustrator 25.2.0, SVG Export Plug-In . SVG Version: 6.00 Build 0)  -->
<svg xmlns="http://www.w3.org/2000/svg" xmlns:xlink="http://www.w3.org/1999/xlink" version="1.1" id="Capa_1" x="0px" y="0px" viewBox="0 0 500 500" style="enable-background:new 0 0 500 500;" xml:space="preserve" width="512" height="512">
<g>
	<g>
		<path d="M150.222,243.486c0.329-0.449,0.67-0.889,0.985-1.348c5.786-8.448,11.809-16.69,19.505-23.569    c3.812-3.408,7.935-6.306,12.574-8.454c2.871-1.329,5.887-2.008,9.066-1.775c4.19,0.308,6.697,2.884,6.802,7.091    c0.098,3.98-1.178,7.656-3.007,11.093c-2.17,4.077-4.79,7.922-6.841,12.053c-1.931,3.888-3.459,7.987-4.988,12.059    c-0.501,1.335-0.637,2.879-0.613,4.323c0.04,2.43,1.558,3.401,3.892,2.687c0.463-0.142,0.915-0.356,1.332-0.603    c0.918-0.543,1.797-1.155,2.719-1.692c2.01-1.171,3.057-2.798,3.71-5.15c3.443-12.4,10.246-22.718,20.257-30.804    c2.252-1.819,4.956-3.127,7.571-4.431c2.513-1.253,5.279-1.576,8.075-1.18c4.588,0.651,7.615,3.186,8.983,7.639    c0.9,2.929,1.121,5.923,0.931,9.052c0.931-1.33,1.837-2.677,2.797-3.985c1.919-2.614,3.812-5.25,5.816-7.798    c4.017-5.106,9.927-4.24,13.603-2.196c2.109,1.173,2.736,3.178,1.352,5.176c-0.99,1.429-2.346,2.641-3.674,3.793    c-5.706,4.953-11.459,9.852-17.203,14.762c-2.944,2.516-4.284,6.065-6.024,9.347c-8.941,16.868-16.532,34.373-24.531,51.691    c-9.535,20.64-20.13,40.727-33.194,59.413c-5.933,8.486-13.052,15.74-22.13,20.882c-4.21,2.385-8.683,4.066-13.546,4.631    c-7.926,0.92-14.471-1.778-19.668-7.652c-4.395-4.968-5.115-10.978-4.197-17.309c0.992-6.841,3.749-13.084,6.845-19.147    c4.472-8.758,9.618-17.125,15.868-24.754c1.602-1.955,3.428-3.727,5.152-5.583c0.292-0.315,0.588-0.626,0.972-1.034    c-6.161-1.516-12.182-2.795-18.41-2.854c-7.855-0.075-15.652,0.525-23.315,2.235c-13.424,2.997-23.8,10.693-31.935,21.521    c-2.979,3.965-4.474,8.673-5.06,13.616c-0.256,2.162,0.056,4.252,1.007,6.238c0.247,0.515,0.449,1.078,0.532,1.64    c0.184,1.242-0.651,2.403-1.858,2.228c-6.091-0.88-12.364-1.108-17.862-4.388c-6.576-3.922-9.485-11.47-7.194-18.778    c1.638-5.227,4.18-10,7.559-14.317c7.182-9.177,15.994-16.28,26.737-20.892c8.796-3.776,18.078-4.852,27.54-4.746    c15.491,0.174,29.957,4.204,43.482,11.709c1.359,0.754,2.78,2.014,4.14,1.972c1.332-0.041,2.636-1.423,3.926-2.258    c4.213-2.729,8.673-4.904,13.58-6.064c2.975-0.703,5.985-1.019,8.955-0.033c4.081,1.354,6.525,4.523,6.811,8.671    c0.29,4.211-2.099,8.493-5.86,10.293c-4.513,2.161-9.253,2.29-13.928,0.838c-3.553-1.104-6.947-2.717-10.412-4.104    c-0.322-0.129-0.64-0.266-1.149-0.479c-0.747,1.413-1.548,2.741-2.174,4.147c-2.177,4.89-3.687,9.916-3.062,15.382    c0.327,2.854,1.178,5.477,2.997,7.724c1.749,2.16,4.043,3.136,6.817,2.923c3.27-0.251,6.207-1.449,8.968-3.166    c4.734-2.946,8.601-6.855,12.37-10.903c6.726-7.225,11.801-15.553,16.465-24.178c7.04-13.023,14.117-26.027,21.199-39.027    c1.145-2.101,2.402-4.14,3.485-6.335c-0.325,0.308-0.634,0.635-0.978,0.92c-3.11,2.581-6.127,5.289-9.38,7.674    c-1.648,1.209-3.648,2.098-5.623,2.671c-5.295,1.536-10.182-1.098-12.044-6.28c-0.418-1.165-0.707-2.376-1.115-3.772    c-1.447,2.316-2.801,4.516-4.188,6.695c-3.128,4.915-6.724,9.411-11.65,12.662c-1.106,0.73-2.293,1.388-3.525,1.87    c-4.828,1.889-9.115,0.392-11.803-4.06c-1.938-3.209-2.431-6.721-2.162-10.405c0.6-8.243,3.666-15.634,7.892-22.588    c2.446-4.025,5.089-7.933,7.709-11.849c3.114-4.653,5.123-9.841,7.362-14.919c0.105-0.238,0.146-0.504,0.28-0.983    c-0.663,0.139-1.209,0.146-1.65,0.364c-1.629,0.804-3.324,1.53-4.81,2.553c-4.34,2.988-8.167,6.559-11.678,10.498    c-7.523,8.439-14.615,17.228-20.989,26.554c-1.373,2.009-1.784,4.814-2.163,7.325c-0.34,2.251-0.091,4.604,0.015,6.907    c0.129,2.799-0.552,3.943-3.264,4.664c-3.508,0.932-7.087,1.322-10.699,0.754c-4.895-0.769-7.573-4.058-7.417-9.017    c0.12-3.808,1.345-7.341,2.88-10.762c4.507-10.047,9.778-19.653,16.602-28.346c0.158-0.201,0.285-0.426,0.276-0.819    c-0.815,0.566-1.639,1.121-2.444,1.701c-5.991,4.319-11.941,8.699-18.585,12.012c-0.407,0.203-0.767,0.733-0.916,1.187    c-3.183,9.694-8.396,18.216-15.029,25.891c-1.56,1.805-3.354,3.438-5.2,4.956c-2.136,1.757-4.688,2.666-7.455,2.988    c-4.569,0.532-8.045-1.248-10.317-5.128c-1.081-1.846-1.665-3.983-2.522-6.107c-0.223,0.257-0.596,0.641-0.92,1.064    c-7.588,9.885-16.541,18.33-26.702,25.533c-5.2,3.687-10.8,6.544-16.841,8.53c-10.65,3.502-20.547,0.229-27.008-8.946    c-3.429-4.868-5.714-10.219-6.663-16.14c-1.672-10.43-1.444-20.808,1.507-30.946c7.599-26.104,19.455-49.923,38.427-69.785    c4.524-4.737,9.332-9.17,14.717-12.929c5.505-3.843,11.494-6.591,18.16-7.686c4.867-0.799,9.605-0.438,13.965,2.098    c4.051,2.356,7.008,5.673,8.01,10.35c3.167,14.77,1.472,28.957-5.676,42.317c-3.692,6.902-9.639,10.775-17.477,11.597    c-4.854,0.509-9.686,0.167-14.484-0.602c-3.125-0.501-3.935-2.457-2.093-5.056c0.894-1.262,1.988-2.388,3.04-3.532    c8.703-9.471,16.224-19.792,22.261-31.16c2.181-4.106,3.79-8.441,4.116-13.146c0.058-0.838,0.063-1.694-0.042-2.525    c-0.266-2.1-1.693-3.214-3.753-2.702c-1.533,0.381-3.025,1.042-4.441,1.764c-4.106,2.096-7.413,5.197-10.425,8.627    c-6.723,7.653-11.824,16.331-16.079,25.54c-5.75,12.445-10.35,25.283-12.884,38.784c-0.661,3.522-1.089,7.152-1.054,10.727    c0.075,7.675,3.426,13.578,10.384,17.207c2.134,1.113,4.426,1.248,6.756,1.141c3.561-0.164,6.998-0.989,10.117-2.667    c5.324-2.864,10.545-5.921,15.778-8.952c0.472-0.273,0.86-0.901,1.033-1.445c1.228-3.843,2.936-7.435,5.253-10.748    c0.288-0.413,0.354-1.163,0.21-1.668c-1.803-6.324-0.954-12.23,3.104-17.421c3.844-4.917,8.765-8.564,14.548-10.973    c1.184-0.493,2.435-0.875,3.691-1.133c5.986-1.229,11.268,1.679,13.471,7.389c1.8,4.666,1.82,9.47,1.014,14.326    c-0.036,0.219-0.077,0.437-0.108,0.656c-0.005,0.035,0.029,0.075,0.124,0.3c0.392-0.257,0.774-0.493,1.141-0.75    c5.569-3.907,11.041-7.965,16.746-11.664c2.77-1.796,5.926-3.037,9.001-4.304c1.864-0.769,3.881-0.899,5.827,0.096    c1.664,0.851,2.68,2.174,2.632,4.004c-0.045,1.757-0.153,3.606-0.732,5.237c-1.98,5.574-4.179,11.069-6.294,16.594    c-0.158,0.412-0.314,0.825-0.471,1.237C150.113,243.415,150.168,243.451,150.222,243.486z M238.251,234.077    c0.899-3.77,0.286-7.255-1.188-10.645c-1.12-2.577-3.022-3.193-5.363-1.602c-1.118,0.76-2.165,1.745-2.959,2.836    c-1.959,2.691-3.96,5.388-5.555,8.296c-1.655,3.018-2.931,6.256-4.212,9.463c-0.467,1.168-0.6,2.516-0.655,3.792    c-0.103,2.409,1.769,3.767,3.942,2.769c1.801-0.826,3.667-1.751,5.114-3.063c3.216-2.917,6.22-6.073,9.234-9.205    C237.312,235.987,237.712,234.965,238.251,234.077z M104.141,227.178c2.196,0.958,2.38,1.805,1.166,3.933    c-1.076,1.887-2.031,3.847-2.944,5.818c-0.21,0.454-0.18,1.143-0.003,1.631c0.696,1.925,1.719,2.574,3.793,2.377    c3.77-0.357,7.095-1.927,10.22-3.959c0.327-0.213,0.597-0.685,0.676-1.081c0.596-2.962,1.408-5.918,1.606-8.911    c0.149-2.239-0.229-4.62-0.895-6.777c-0.731-2.37-3.051-3.25-4.887-2.135C109.172,220.323,106.156,223.273,104.141,227.178z     M114.052,245.001c-2.555,1.001-5.001,2.15-7.563,2.909c-2.605,0.772-5.323,1.158-8.251,1.768c0.121,0.947,0.127,2.153,0.446,3.27    c0.868,3.04,2.844,4.078,5.674,2.672c2.026-1.007,3.95-2.39,5.594-3.948C111.852,249.87,113.607,247.819,114.052,245.001z"/>
		<path d="M373.606,245.2c-1.414,1.838-2.703,3.641-4.122,5.334c-3.153,3.763-6.528,7.331-10.857,9.753    c-2.039,1.141-4.24,2.109-6.484,2.747c-6.281,1.785-11.199-1.462-12.225-7.938c-0.241-1.519-0.214-3.08-0.328-4.903    c-0.381,0.504-0.655,0.858-0.921,1.218c-3.701,5.007-7.908,9.497-13.169,12.911c-3.039,1.972-6.312,3.264-9.979,3.398    c-4.275,0.156-7.477-1.645-9.597-5.333c-1.682-2.926-2.229-6.164-2.444-9.478c-0.031-0.471-0.059-0.943-0.114-1.828    c-0.853,1.52-1.456,2.735-2.186,3.868c-1.875,2.911-3.715,5.851-5.739,8.657c-2.515,3.485-5.874,6.064-9.627,8.093    c-2.899,1.568-6.014,2.39-8.955,0.315c-1.389-0.98-2.582-2.467-3.404-3.975c-1.737-3.189-1.994-6.714-1.389-10.261    c1.171-6.863,3.768-13.266,6.77-19.479c2.725-5.64,5.805-11.11,8.728-16.655c0.163-0.31,0.315-0.626,0.6-1.195    c-3.48-0.793-6.833-1.556-10.321-2.351c-0.201,0.597-0.392,1.129-0.56,1.668c-3.715,11.987-8.371,23.573-15.225,34.138    c-2.606,4.016-5.645,7.763-8.644,11.507c-2.338,2.919-5.438,4.843-9.076,5.799c-4.521,1.188-7.509-0.781-8.223-5.405    c-0.224-1.448-0.357-2.911-0.499-4.37c-0.118-1.21,0.351-2.098,1.572-2.445c2.98-0.847,5.512-2.507,7.777-4.527    c6.237-5.561,11.42-12.06,16.349-18.767c4.438-6.04,7.877-12.666,11.223-19.343c0.056-0.113,0.056-0.254-0.21-0.165    c-1.543-1.855-3.315-3.566-4.587-5.591c-3.952-6.291-0.55-15.674,5.178-19.11c4.119-2.471,8.398-0.622,9.417,4.072    c0.606,2.79-0.045,5.493-0.718,8.166c-0.737,2.925-1.61,5.816-2.456,8.84c0.551,0.203,0.94,0.392,1.351,0.489    c1.948,0.46,3.906,0.876,5.852,1.346c1.512,0.365,3.048,0.68,4.507,1.202c5.737,2.048,8.267,6.197,7.088,12.171    c-0.642,3.253-1.91,6.38-2.826,9.583c-0.793,2.774-1.578,5.558-2.173,8.378c-0.18,0.851,0.028,2.403,0.519,2.629    c0.733,0.336,2.031,0.032,2.81-0.45c1.38-0.856,2.659-1.947,3.789-3.122c3.488-3.628,5.918-7.859,7.778-12.585    c3.219-8.177,7.934-15.503,14.1-21.829c3.001-3.08,6.305-5.816,10.266-7.539c1.966-0.855,4.126-1.495,6.251-1.705    c5.059-0.499,9.202,2.014,10.858,6.816c0.955,2.767,1.129,5.805,1.635,8.725c0.079,0.457,0.054,0.933,0.096,1.791    c0.875-1.67,1.431-3.074,2.277-4.275c1.99-2.826,3.974-5.678,6.226-8.291c3.111-3.611,7.269-3.546,11.45-2.511    c2.072,0.513,2.92,2.629,1.994,4.6c-0.483,1.028-1.155,2.028-1.947,2.84c-2.794,2.862-5.57,5.757-8.551,8.417    c-4.549,4.059-7.157,9.029-7.539,15.086c-0.107,1.698,0.147,3.475,0.557,5.137c0.599,2.428,2.009,3.245,4.396,2.574    c1.428-0.401,2.865-1.042,4.079-1.889c4.224-2.946,7.709-6.697,11.023-10.606c0.279-0.329,0.482-0.757,0.608-1.173    c3.707-12.246,9.074-23.773,15.532-34.767c7.455-12.688,15.203-25.204,22.823-37.795c0.153-0.253,0.295-0.513,0.558-0.971    c-0.754,0.057-1.31,0.095-1.865,0.143c-16.72,1.443-33.211,4.477-49.771,7.064c-31.884,4.98-63.343,11.911-94.608,19.848    c-23.673,6.01-47.607,10.795-71.834,14.001c-11.963,1.583-23.934,1.726-35.874-0.304c-6.349-1.08-12.504-2.778-18.205-5.876    c-10.585-5.752-16.524-14.725-18.196-26.548c-2.703-19.12,7.429-38.309,24.438-46.449c5.564-2.662,11.434-3.68,17.532-2.757    c7.058,1.068,12.237,4.722,15.081,11.461c1.832,4.339,2.513,8.877,2.691,13.525c0.117,3.058-1.297,5.141-4.089,6.396    c-2.96,1.331-5.938,2.644-8.792,4.181c-4.162,2.243-7.491,5.486-9.688,9.659c-0.939,1.784-1.453,3.946-1.577,5.971    c-0.266,4.37,3.454,8.758,7.778,9.489c9.524,1.609,19.131,1.635,28.738,1.237c20.744-0.861,41.278-3.609,61.715-7.141    c22.35-3.863,44.668-7.922,67.039-11.653c22.415-3.738,44.894-7.099,67.517-9.342c9.067-0.899,18.17-1.431,27.26-2.085    c0.893-0.064,1.437-0.382,1.971-1.08c2.622-3.423,5.231-6.861,7.998-10.165c1.212-1.447,2.675-2.757,4.232-3.825    c2.459-1.685,5.136-1.304,7.03,0.7c1.99,2.106,2.152,4.665,0.377,7.16c-0.849,1.193-1.806,2.31-2.723,3.453    c-0.887,1.104-1.786,2.198-2.876,3.538c0.676,0.054,1.124,0.076,1.57,0.126c6.137,0.689,12.29,1.266,18.401,2.134    c2.254,0.32,4.53,1.078,6.591,2.064c7.554,3.615,8.349,11.221,5.731,17.365c-2.001,4.695-5.662,7.633-10.334,9.226    c-3.225,1.099-6.612,1.732-9.943,2.507c-1.103,0.257-2.265,0.249-3.039-0.807c-0.766-1.046-0.38-2.12,0.079-3.161    c1.017-2.311,2.456-4.516,2.349-7.154c-0.077-1.893-0.246-3.828-0.73-5.649c-0.762-2.866-2.812-4.833-5.58-5.654    c-3.61-1.071-7.33-1.775-11.018-2.568c-0.352-0.076-0.945,0.226-1.198,0.537c-4.677,5.763-9.571,11.375-13.88,17.403    c-2.795,3.909-4.973,8.322-6.99,12.711c-3.564,7.753-7.046,15.563-10.062,23.539c-1.652,4.369-2.408,9.101-3.304,13.72    c-0.355,1.831-0.162,3.823,0.078,5.703c0.376,2.943,1.846,3.789,4.672,2.975c3.5-1.007,6.104-3.421,8.755-5.707    c1.914-1.65,3.658-3.503,5.425-5.316c0.361-0.371,0.635-0.952,0.699-1.467c0.734-5.877,1.602-11.729,3.681-17.311    c1.528-4.101,4.094-7.591,7.011-10.777c2.559-2.796,5.873-3.95,9.675-3.354c3.238,0.508,5.319,2.848,4.766,5.47    c-0.222,1.049-0.777,2.092-1.404,2.981c-5.174,7.341-10.424,14.63-16.718,21.079c-0.923,0.946-1.226,1.868-1.092,3.193    c0.979,9.638,3.268,19.01,5.531,28.396c0.968,4.014,1.932,8.062,2.427,12.151c1.063,8.789-1.313,16.645-7.641,22.957    c-7.954,7.934-22.598,10.566-32.317,6.077c-4.731-2.185-6.61-6.056-5.42-11.135c0.446-1.904,0.847-3.818,1.298-5.72    c0.461-1.942,1.191-2.3,2.942-1.349c2.14,1.161,4.366,2.01,6.815,2.137c4.309,0.223,8.028-1.186,11.212-4.089    c4.599-4.195,6.702-9.608,7.782-15.573c1.474-8.143,1.312-16.386,1.63-24.6c0.049-1.274,0.057-2.549,0.09-4.055    c-2.423,3.259-4.613,6.39-6.994,9.367c-3.69,4.612-7.373,9.245-11.334,13.619c-1.939,2.142-4.318,4.03-6.813,5.498    c-6.76,3.978-13.558,0.889-15.382-6.755C373.801,245.882,373.712,245.59,373.606,245.2z M345.068,225.216    c0.222-1.113,0.804-3.059,0.955-5.038c0.191-2.503,0.272-5.063-0.035-7.544c-0.438-3.532-5.43-5.676-8.135-2.826    c-0.977,1.029-2.129,1.907-3.016,3.004c-5.164,6.382-8.49,13.62-9.872,21.725c-0.424,2.49-0.39,4.959,0.642,7.334    c1.435,3.303,3.862,4.183,6.99,2.429c2.635-1.477,4.774-3.539,6.552-5.972C341.862,234.616,343.551,230.428,345.068,225.216z"/>
		<path d="M375.918,291.685c-0.927,2.013-2.252,5.321-3.937,8.435c-2.182,4.033-5.744,6.45-10.139,7.677    c-5.451,1.522-11.013,1.588-16.543,0.878c-9.039-1.161-18.045-2.581-27.06-3.921c-20.259-3.013-40.412-3.026-60.331,2.338    c-5.318,1.432-10.526,3.274-15.788,4.916c-0.847,0.264-1.701,0.531-2.571,0.687c-1.027,0.185-1.974-0.062-2.565-1.006    c-0.59-0.942-0.485-1.947,0.231-2.726c1.44-1.564,2.886-3.146,4.499-4.52c3.7-3.151,8.076-5.134,12.508-7.031    c18.14-7.766,37.166-11.026,56.789-11.338c11.509-0.183,23.019-0.349,34.526-0.627c2.968-0.072,5.933-0.482,8.888-0.831    c4.609-0.544,8.902-2.078,12.949-4.331c1.01-0.562,2.032-1.108,3.073-1.609c2.525-1.215,4.562-0.464,5.609,2.142    C377.318,283.964,377.133,287.171,375.918,291.685z"/>
	</g>
	<g>
		<path d="M457.62,220.251c3.965-10.663,8.565-21.021,13.475-31.246c4.908-10.219,9.985-20.362,13.764-31.079    c0.63-1.785,1.846-2.844,3.728-2.928c2.033-0.092,4.102-0.247,6.102,0.018c3.751,0.498,5.92,3.176,5.158,6.861    c-0.648,3.133-1.832,6.221-3.204,9.128c-4.9,10.382-11.212,19.971-17.023,29.844c-5.021,8.531-9.813,17.198-14.699,25.808    c-0.983,1.733-1.915,3.494-2.908,5.221c-0.841,1.464-2.668,1.523-3.783,0.118c-1.425-1.797-1.995-3.891-1.707-6.134    C456.765,223.976,457.246,222.12,457.62,220.251z"/>
		<path d="M451.55,255.303c-3.5-0.978-5.399-4.411-4.392-7.942c1.029-3.613,5.419-5.821,9.418-4.738    c3.231,0.875,5.065,4.255,4.108,7.573C459.561,254.092,455.448,256.392,451.55,255.303z"/>
	</g>
</g>















</svg>
