<svg id="Layer_1" enable-background="new 0 0 512.013 512.013" height="512" viewBox="0 0 512.013 512.013" width="512" xmlns="http://www.w3.org/2000/svg"><g><path d="m359.236 244.821v49.693l23.66 79.37c5.38 18.04 8.11 36.77 8.11 55.59v32.062c0 23.736-19.242 42.978-42.978 42.978h-184.043c-23.736 0-42.978-19.242-42.978-42.978v-32.072c0-18.81 2.73-37.53 8.1-55.57l23.66-79.38v-49.7c0-17.755-5.552-35.065-15.878-49.508l-.005-.007c-10.326-14.443-15.878-31.754-15.878-49.508v-3.277c0-74.558 60.441-135 135-135 74.558 0 135 60.441 135 135v3.27c0 17.759-5.554 35.074-15.885 49.519-10.331 14.444-15.885 31.759-15.885 49.518z" fill="#fe5ca7"/><path d="m375.121 195.302c10.331-14.445 15.885-31.76 15.885-49.519v-3.27c0-74.558-60.441-135-135-135-5.071 0-10.074.289-15 .834 67.498 7.463 120 64.679 120 134.166v3.27c0 17.759-5.554 35.074-15.885 49.519s-15.885 31.76-15.885 49.519v49.693l23.66 79.37c5.38 18.04 8.11 36.77 8.11 55.59v32.062c0 23.736-19.242 42.979-42.979 42.979h30c23.736 0 42.979-19.242 42.979-42.979v-32.062c0-18.82-2.73-37.55-8.11-55.59l-23.66-79.37v-49.693c0-17.759 5.554-35.074 15.885-49.519z" fill="#fe3d97"/><g fill="#60b7ff"><path d="m322.166 452.475c11.885 0 21.52 9.635 21.52 21.52v30.519h-43.04v-30.519c0-11.885 9.635-21.52 21.52-21.52z"/><path d="m256.006 452.475c11.885 0 21.52 9.635 21.52 21.52v30.519h-43.04v-30.519c0-11.885 9.635-21.52 21.52-21.52z"/><path d="m189.846 452.475c11.885 0 21.52 9.635 21.52 21.52v30.519h-43.04v-30.519c.001-11.885 9.635-21.52 21.52-21.52z"/></g><path d="m256.004 392.475c-44.279 0-89.164-4.517-133.414-13.427-6.528-1.413-13.358-6.149-16.273-11.295-1.414-2.497-1.254-3.804-.922-5.137l11.829-47.044c.881-3.241 5.356-5.968 9.815-5.968.747 0 2.504.304 2.504.304 41.96 8.803 84.509 13.266 126.463 13.266 41.953 0 84.501-4.463 126.462-13.266 0 0 1.757-.304 2.504-.304 4.457 0 8.932 2.725 9.815 5.965l11.847 47.116c.316 1.264.476 2.57-.939 5.068-2.914 5.145-9.743 9.881-16.27 11.294-44.251 8.909-89.14 13.428-133.421 13.428z" fill="#685e68"/><g><g><g><path d="m180.279 350.676-20.495-3.307c-2.519-.406-4.231-2.778-3.825-5.297l3.725-23.082 29.617 4.779-3.725 23.082c-.407 2.519-2.778 4.232-5.297 3.825z" fill="#f3f0f3"/></g><g><path d="m331.733 350.676 20.495-3.307c2.519-.406 4.231-2.778 3.825-5.297l-3.725-23.082-29.617 4.779 3.725 23.082c.407 2.519 2.779 4.232 5.297 3.825z" fill="#f3f0f3"/></g></g><g><g><path d="m272.954 355.218 20.742-.87c2.549-.107 4.529-2.26 4.422-4.809l-.98-23.36-29.974 1.257.98 23.36c.108 2.549 2.261 4.529 4.81 4.422z" fill="#f3f0f3"/></g><g><path d="m239.058 355.218-20.742-.87c-2.549-.107-4.529-2.26-4.422-4.809l.98-23.36 29.974 1.257-.98 23.36c-.108 2.549-2.261 4.529-4.81 4.422z" fill="#f3f0f3"/></g></g></g><g><path d="m422.735 353.943c-3.63-13.13-7.25-26.25-10.88-39.38-5.47-19.28-26.69-29.9-45.77-26.04-73.43 14.01-146.729 14.01-220.159 0-19.08-3.86-40.3 6.76-45.77 26.04-3.63 13.13-7.25 26.25-10.88 39.38-6.96 25.39 15.87 46.63 39.1 51.09 85.03 15.6 170.229 15.6 255.258 0 23.231-4.46 46.061-25.7 39.101-51.09zm-29.78 12.21c-2.66 4.28-8.91 8.22-14.88 9.4-40.49 7.42-81.56 11.18-122.069 11.18s-81.58-3.76-122.059-11.18c-5.98-1.17-12.23-5.12-14.89-9.4-1.3-2.08-1.15-3.17-.85-4.28l10.83-39.17c.8-2.7 4.9-4.97 8.98-4.97.68 0 2.29.25 2.29.25 38.39 7.33 77.32 11.05 115.699 11.05s77.31-3.72 115.699-11.05c0 0 1.61-.25 2.29-.25 4.08 0 8.18 2.27 8.98 4.97l10.84 39.23c.29 1.05.44 2.14-.86 4.22z" fill="#22b37f"/></g><g><path d="m422.735 353.943c-3.63-13.13-7.25-26.25-10.88-39.38-5.47-19.28-26.69-29.9-45.77-26.04-3.071.586-6.142 1.138-9.213 1.675 11.093 3.961 20.394 12.526 23.752 24.365.686 2.479 1.37 4.957 2.054 7.436.12.231.226.465.296.704l10.84 39.23c.29 1.05 1.651 32.798-41.411 43.1-36.896 8.827-74.662 10.686-112.014 11.523 47.762 1.071 95.53-2.769 143.245-11.523 23.231-4.46 46.061-25.7 39.101-51.09z" fill="#09a76d"/></g><g><path d="m417.006 165.576c0 24.81-31.165 59.753-69.609 59.753s-69.609-34.943-69.609-59.753 31.165-44.923 69.609-44.923 69.609 20.113 69.609 44.923z" fill="#f3f0f3"/><path d="m347.397 120.653c-5.152 0-10.167.372-15 1.057 31.231 4.429 54.609 22.38 54.609 43.866 0 21.485-23.378 50.552-54.609 57.962 4.833 1.147 9.848 1.791 15 1.791 38.444 0 69.609-34.943 69.609-59.753s-31.165-44.923-69.609-44.923z" fill="#e2dee2"/><path d="m234.225 165.576c0 24.81-31.165 59.753-69.609 59.753s-69.609-34.943-69.609-59.753 31.165-44.923 69.609-44.923 69.609 20.113 69.609 44.923z" fill="#f3f0f3"/><path d="m164.615 120.653c-5.152 0-10.167.372-15 1.057 31.231 4.429 54.61 22.38 54.61 43.866 0 21.485-23.378 50.552-54.61 57.962 4.833 1.147 9.848 1.791 15 1.791 38.444 0 69.61-34.943 69.61-59.753s-31.165-44.923-69.61-44.923z" fill="#e2dee2"/></g><path d="m296.16 279.818c0 24.455-17.977 29.786-40.154 29.786s-40.154-5.331-40.154-29.786 17.977-58.772 40.154-58.772 40.154 34.317 40.154 58.772z" fill="#fea95c"/><path d="m256.006 221.046c-5.305 0-10.364 1.979-15 5.302 14.743 10.567 25.154 34.865 25.154 53.47s-10.41 26.135-25.154 28.676c4.636.799 9.695 1.11 15 1.11 22.176 0 40.154-5.331 40.154-29.786s-17.978-58.772-40.154-58.772z" fill="#fe9738"/><g><path d="m244.743 101.501 2.103-9.436s-26.421-55.446-108.322-49.385c-7.847.581-15.04 4.609-19.659 10.979l-17.331 23.904c-3.377 4.658 1.031 10.984 6.56 9.393 27.428-7.892 82.308-16.818 136.649 14.545z" fill="#22b37f"/><path d="m267.269 101.501-2.103-9.436s26.421-55.446 108.322-49.385c7.847.581 15.04 4.609 19.659 10.979l17.331 23.904c3.377 4.658-1.031 10.984-6.56 9.393-27.428-7.892-82.308-16.818-136.649 14.545z" fill="#22b37f"/><g><path d="m410.479 77.563-17.331-23.904c-4.619-6.37-11.812-10.398-19.659-10.979-9.968-.738-19.108-.559-27.484.315 6.854 1.171 13.024 4.981 17.144 10.664l17.331 23.904c1.014 1.399 1.315 2.946 1.106 4.386 8.618 1.409 16.171 3.233 22.334 5.007 5.528 1.591 9.936-4.735 6.559-9.393z" fill="#09a76d"/></g></g><circle cx="256.006" cy="97.093" fill="#60b7ff" r="19"/><g><path d="m429.957 351.945-10.893-39.429c-6.085-21.453-29.31-35.326-52.331-31.725.329-10.978-1.058-40.659 1.48-51.026 46.475-13.773 83.14-74.002 29.284-104.19-1.39-11.911-4.306-23.517-8.616-34.63 4.828 1.017 9.18 2.13 12.96 3.218 12.217 3.668 22.314-10.769 14.704-21.003 0 0-17.33-23.905-17.33-23.905-5.936-8.188-15.114-13.311-25.176-14.056-8.687-.643-16.787-.612-24.339-.047-7.728-6.75-16.19-12.675-25.163-17.606-8.834-4.509-15.764 8.105-7.224 13.146 4.127 2.268 8.134 4.773 11.994 7.491-31.484 7.177-50.65 23.989-60.62 35.648-7.427-4.274-17.932-4.274-25.36 0-9.97-11.657-29.135-28.464-60.612-35.643 29.253-20.797 67.711-28.201 102.748-19.755 4.031.953 8.07-1.543 9.024-5.573.953-4.031-1.542-8.071-5.573-9.025-44.169-10.648-92.546 1.227-126.602 31.32-7.553-.565-15.653-.597-24.339.046-10.062.745-19.24 5.868-25.177 14.056l-17.328 23.904c-7.605 10.225 2.482 24.676 14.706 21.002 3.78-1.088 8.131-2.2 12.957-3.217-4.318 11.112-7.204 22.713-8.616 34.631-53.859 30.189-17.174 90.41 29.256 104.181 2.553 10.202 1.178 40.233 1.5 51.034-23.076-3.569-46.243 10.299-52.335 31.773 0 0-10.884 39.396-10.884 39.396-7.041 24.059 10.103 47.52 32.563 56.649-1.677 13.274-.966 39.271-1.102 52.925 0 27.834 22.644 50.479 50.477 50.479h184.036c27.833 0 50.477-22.645 50.477-50.479-.15-13.756.587-39.506-1.102-52.919 22.447-9.128 39.613-32.599 32.556-56.671zm-20.456-186.369c0 20.634-27.824 52.253-62.107 52.253s-62.107-31.619-62.107-52.253c0-20.286 28.441-37.423 62.107-37.423s62.107 17.137 62.107 37.423zm-48.468-115.866c9.604.152 19.726-.612 26.039 8.351 0 0 14.923 20.585 14.923 20.585-26.378-6.983-73.156-13.483-121.7 7.866-.302-.691-.629-1.37-.987-2.029 12.095-14.757 36.779-34.773 81.725-34.773zm-93.527 47.384c0 6.341-5.159 11.5-11.5 11.5-15.235-.578-15.231-22.424 0-23 6.341 0 11.5 5.158 11.5 11.5zm-157.488-18.448 14.922-20.584c3.339-4.604 8.493-7.484 14.141-7.902 52.55-3.886 80.502 18.314 93.623 34.325-.358.66-.685 1.339-.987 2.031-40.083-17.998-85.643-17.619-121.699-7.87zm-7.506 86.93c0-20.286 28.441-37.423 62.107-37.423s62.107 17.138 62.107 37.423c0 20.634-27.824 52.253-62.107 52.253s-62.107-31.619-62.107-52.253zm62.108 67.253c34.334 1.742 77.108-33.17 77.106-67.254-2.214-47.617-72.121-61.043-110.929-47.193 2.002-10.467 5.306-20.608 9.873-30.27 24.855-2.824 56.869-1.355 89.343 14.128 6.025 28.298 45.971 28.279 51.987.001 32.467-15.479 64.476-16.951 89.326-14.13 4.565 9.659 7.87 19.801 9.873 30.266-38.841-13.825-108.649-.453-110.912 47.2.359 36.227 45.955 71.414 82.264 67.044-1.472 8.373-.598 41.835-.817 50.839-16.321 2.74-32.732 4.802-49.031 6.143 5.871-28.008-15.98-75.875-46.696-76.058-30.728.2-52.55 48.031-46.696 76.058-16.315-1.343-32.738-3.406-49.041-6.144-.223-9.215.658-42.272-.809-50.839 1.716.124 3.436.209 5.159.209zm58.734 46.989c0-21.913 16.144-51.272 32.653-51.272s32.653 29.359 32.653 51.272c0 13.758-5.463 22.286-32.653 22.286s-32.653-8.528-32.653-22.286zm-47.524 217.195v-23.019c0-7.73 6.289-14.02 14.019-14.02s14.02 6.29 14.02 14.02v23.019zm66.158 0v-23.019c0-7.73 6.289-14.02 14.019-14.02s14.019 6.29 14.019 14.02v23.019zm66.157 0v-23.019c0-7.73 6.29-14.02 14.02-14.02s14.019 6.29 14.019 14.02v23.019zm103.91-118.972c-5.969 9.588-17.681 17.292-29.777 19.615-65.749 12.063-132.449 14.694-198.252 7.816-4.12-.439-7.808 2.56-8.238 6.68-.431 4.12 2.559 7.808 6.679 8.239 66.787 6.971 133.935 4.36 200.286-7.586 1.232 11.062.607 37.274.749 48.729 0 18.498-14.232 33.726-32.319 35.33v-22.87c0-16.001-13.018-29.02-29.018-29.02-16.001 0-29.019 13.019-29.019 29.02v23.019h-8.12v-23.019c0-16.001-13.018-29.02-29.018-29.02s-29.018 13.019-29.018 29.02v23.019h-8.12v-23.019c0-16.001-13.018-29.02-29.019-29.02-16 0-29.018 13.019-29.018 29.02v22.87c-18.087-1.604-32.319-16.832-32.319-35.33.148-11.584-.483-37.517.749-48.731 6.372 1.073 12.757 2.379 19.139 3.113 9.13-.148 10.218-13.343 1.136-14.913-20.039-2.996-37.742-4.951-49.577-22.963-4.378-7.033-5.536-14.474-3.446-22.099l10.866-39.332c4.178-14.724 20.811-24.027 37.148-20.719 24.147 4.607 48.616 7.743 72.759 9.345 11.419 11.857 30.677 11.867 38.721 11.867 8.045 0 27.302-.01 38.722-11.867 24.145-1.603 48.615-4.739 72.841-9.361 16.256-3.286 32.889 6.012 37.052 20.688l10.875 39.364c2.092 7.641.934 15.082-3.444 22.115z"/><path d="m390.2 320.706c-1.92-6.794-9.812-10.474-16.208-10.472-78.704 14.863-157.267 14.863-235.97-.001-6.395-.001-14.289 3.679-16.207 10.473 0 0-10.84 39.208-10.84 39.208-.604 2.231-1.083 5.717 1.719 10.2 3.777 6.077 11.742 11.221 19.907 12.818 82.121 15.055 164.697 15.053 246.824 0 10.832-2.243 24.481-11.422 21.618-22.994-.002-.002-10.843-39.232-10.843-39.232zm-42.012 19.717-14.808 2.39-1.769-10.963c4.96-.61 9.917-1.281 14.869-2.01zm-57.684 6.553-14.986.628-.478-11.381c4.99-.157 9.985-.374 14.986-.653zm-68.516-11.405c5 .279 9.996.496 14.985.653l-.477 11.381-14.986-.628zm-56.455-5.731c4.953.729 9.91 1.399 14.869 2.01l-1.769 10.963-14.808-2.39zm211.128 38.347c-80.26 14.71-161.058 14.71-241.268.006-3.935-.77-7.947-3.356-9.621-5.516l10.214-36.94c.434-.228 1.154-.48 1.932-.502.235.021.725.082 1.129.142 3.886.741 7.779 1.435 11.675 2.103l-2.162 13.397c-1.17 6.409 3.582 12.99 10.034 13.895 0 0 20.495 3.308 20.495 3.308 6.379 1.177 13.004-3.584 13.895-10.034 0 0 2.346-14.538 2.346-14.538 3.897.386 7.793.735 11.689 1.046l-.615 14.669c-.409 6.504 5.085 12.48 11.6 12.619 0 0 20.741.87 20.741.87 6.622.295 12.351-4.916 12.617-11.602 0 0 .612-14.601.612-14.601 2.69.029 5.376.029 8.067 0l.612 14.603c.266 6.684 5.993 11.897 12.617 11.6 0 0 20.741-.87 20.741-.87 6.512-.138 12.01-6.115 11.6-12.617 0 0-.615-14.671-.615-14.671 3.896-.312 7.792-.661 11.689-1.046 0 0 2.346 14.538 2.346 14.538.893 6.451 7.514 11.212 13.896 10.035 0 0 20.493-3.307 20.493-3.307 6.452-.905 11.206-7.485 10.035-13.896 0 0-2.162-13.397-2.162-13.397 3.896-.668 7.788-1.362 11.674-2.103.406-.06.895-.122 1.13-.142.777.021 1.497.274 1.932.502l10.21 36.948c-1.656 2.134-5.648 4.711-9.578 5.501z"/><path d="m198.871 179.456c7.601.038 10.415-10.321 3.629-14.069-29.111-16.056-56.227-16.055-85.337 0-8.518 5.045-1.602 17.657 7.244 13.135 24.499-13.513 46.35-13.513 70.849 0 1.149.633 2.391.934 3.615.934z"/><path d="m306.568 175.576c2.012 3.662 6.63 4.927 10.189 2.945 24.5-13.513 46.351-13.513 70.849 0 3.627 2.001 8.188.681 10.189-2.945 2-3.627.682-8.189-2.945-10.189-29.107-16.055-56.225-16.057-85.337 0-3.626 2-4.944 6.562-2.945 10.189z"/></g></g></svg>